<?xml version="1.0" standalone="no"?>
<!DOCTYPE svg PUBLIC "-//W3C//DTD SVG 1.1//EN" "http://www.w3.org/Graphics/SVG/1.1/DTD/svg11.dtd">
<svg xmlns="http://www.w3.org/2000/svg">
<defs >
<font id="MPLUSRounded1c" horiz-adv-x="897" ><font-face
    font-family="Rounded Mplus 1c Thin"
    units-per-em="1000"
    panose-1="2 11 3 3 2 2 3 2 2 7"
    ascent="1075"
    descent="-320"
    alphabetic="0" />
<glyph unicode=" " glyph-name="space" horiz-adv-x="256" />
<glyph unicode="!" glyph-name="exclam" horiz-adv-x="262" d="M141 190T131 190T121 200V720Q121 730 131 730T141 720V200Q141 190 131 190ZM141 0T131 0T121 10V100Q121 110 131 110T141 100V10Q141 0 131 0Z" />
<glyph unicode="&quot;" glyph-name="quotedbl" horiz-adv-x="332" d="M96 550T86 550T76 560V760Q76 770 86 770T96 760V560Q96 550 86 550ZM256 550T246 550T236 560V760Q236 770 246 770T256 760V560Q256 550 246 550Z" />
<glyph unicode="#" glyph-name="numbersign" horiz-adv-x="665" d="M256 507L210 243Q208 235 217 235H399Q407 235 409 243L456 507Q458 515 449 515H266Q258 515 256 507ZM66 215Q56 215 56 225T66 235H179Q187 235 189 243L236 507Q238 515 229 515H119Q109
515 109 525T119 535H232Q240 535 242 543L273 720Q275 730 285 730Q289 730 292 727T294 720L263 543Q261 535 270 535H452Q460 535 462 543L493 720Q495 730 505 730Q509 730 512 727T514 720L483 543Q481 535 490 535H599Q609 535 609 525T599 515H486Q478 515
476 507L430 243Q428 235 437 235H546Q556 235 556 225T546 215H433Q425 215 423 207L389 10Q387 0 377 0Q373 0 370 3T368 10L403 207Q405 215 396 215H213Q205 215 203 207L169 10Q167 0 157 0Q153 0 150 3T148 10L183 207Q185 215 176 215H66Z" />
<glyph unicode="$" glyph-name="dollar" horiz-adv-x="527" d="M81 550Q81 423 238 389Q246 387 246 396V686Q246 694 237 694Q165 690 123 652T81 550ZM446 190Q446 326 274 361Q266 363 266 354V44Q266 35 274 35Q354 38 400 79T446 190ZM70 71Q152 39 237 36Q246
36 246 44V358Q246 366 237 368Q61 403 61 550Q61 622 109 666T238 715Q246 715 246 723V805Q246 815 256 815T266 805V723Q266 715 274 715Q358 712 437 689Q446 686 446 676T437 668Q352 692 274 695Q266 695 266 686V392Q266 384 274 382Q466 344 466 190Q466
114 414 67T274 15Q266 15 266 7V-75Q266 -85 256 -85T246 -75V7Q246 16 237 16Q153 19 70 50Q61 53 61 64Q61 68 63 70T70 71Z" />
<glyph unicode="%" glyph-name="percent" horiz-adv-x="772" d="M175 0Q171 0 169 3T169 10L579 720Q586 730 597 730Q601 730 602 727T602 720L193 10Q186 0 175 0ZM706 98T706 175T671 296T571 340T472 296T436 175T471 54T571 10T670 54ZM416 88T416 175T457
311T571 360T685 311T726 175T685 39T571 -10T457 39ZM265 720T201 720T102 676T66 555T101 434T201 390T300 434T336 555T301 676ZM274 370T201 370T87 419T46 555T87 691T201 740T315 691T356 555T315 419Z" />
<glyph unicode="&amp;" glyph-name="ampersand" horiz-adv-x="674" d="M267 392Q168 326 125 274T81 170Q81 94 133 52T281 10Q434 10 524 119Q529 126 524 132L287 396Q282 403 274 397Q272 396 270 394Q268 393 267 392ZM171 620Q171 584 190 548T268 447L279
435Q285 428 293 434Q383 497 412 535T441 620Q441 668 406 694T306 720Q245 720 208 693T171 620ZM281 -10Q176 -10 119 37T61 170Q61 228 106 283T255 408Q256 408 258 410T262 413Q269 417 263 423L254 433Q195 498 173 538T151 620Q151 673 194 706T306 740Q379
740 420 708T461 620Q461 566 429 524T306 419Q298 413 304 407L530 156Q532 154 534 155T536 158V420Q536 430 546 430T556 420V136Q556 127 562 121L662 10Q664 7 663 4T657 0Q645 0 635 10L550 105Q544 110 538 104Q442 -10 281 -10Z" />
<glyph unicode="&apos;" glyph-name="quotesingle" horiz-adv-x="182" d="M101 550T91 550T81 560V760Q81 770 91 770T101 760V560Q101 550 91 550Z" />
<glyph unicode="(" glyph-name="parenleft" horiz-adv-x="329" d="M271 -110Q257 -110 246 -99Q76 71 76 330T246 759Q257 770 271 770Q275 770 277 767T276 761Q96 593 96 330T276 -101Q279 -103 277 -106T271 -110Z" />
<glyph unicode=")" glyph-name="parenright" horiz-adv-x="329" d="M53 -101Q233 67 233 330T53 761Q50 763 52 766T58 770Q72 770 83 759Q253 589 253 330T83 -99Q72 -110 58 -110Q54 -110 52 -107T53 -101Z" />
<glyph unicode="*" glyph-name="asterisk" horiz-adv-x="513" d="M64 592Q53 596 57 605Q60 615 70 611L239 556Q242 555 244 557T247 562V740Q247 750 257 750T267 740V562Q267 559 269 557T275 556L444 611Q453 615 457 605Q460 596 450 592L281 537Q278 536
277 533T278 528L383 384Q388 376 380 370Q372 364 366 372L262 516Q260 518 257 518T252 516L148 372Q142 364 134 370Q125 376 131 384L236 528Q237 530 236 533T233 537L64 592Z" />
<glyph unicode="+" glyph-name="plus" horiz-adv-x="732" d="M96 280Q86 280 86 290T96 300H347Q356 300 356 309V570Q356 580 366 580T376 570V309Q376 300 385 300H636Q646 300 646 290T636 280H385Q376 280 376 271V10Q376 0 366 0T356 10V271Q356 280 347 280H96Z" />
<glyph unicode="," glyph-name="comma" horiz-adv-x="237" d="M74 -110Q70 -110 68 -107T67 -100L140 100Q143 110 154 110Q157 110 159 107T161 100L88 -100Q84 -110 74 -110Z" />
<glyph unicode="-" glyph-name="hyphen" horiz-adv-x="452" d="M96 270Q86 270 86 280T96 290H356Q366 290 366 280T356 270H96Z" />
<glyph unicode="." glyph-name="period" horiz-adv-x="222" d="M121 0T111 0T101 10V100Q101 110 111 110T121 100V10Q121 0 111 0Z" />
<glyph unicode="/" glyph-name="slash" horiz-adv-x="454" d="M49 -40Q45 -40 43 -37T42 -30L376 720Q381 730 391 730Q394 730 396 727T398 720L64 -30Q59 -40 49 -40Z" />
<glyph unicode="0" glyph-name="zero" horiz-adv-x="600" d="M530 720T300 720T70 365T300 10T530 365ZM337 -10T300 -10T230 -1T163 33T105 98T66 207T50 365T65 522T105 631T163 697T230 731T300 740T370 731T437 697T495 632T534 523T550 365T535 208T495 99T437
33T370 -1Z" />
<glyph unicode="1" glyph-name="one" horiz-adv-x="600" d="M120 532Q117 530 114 531T110 537Q110 550 120 558L322 724Q330 730 340 730T350 720V10Q350 0 340 0T330 10V701Q330 702 329 702H327L120 532Z" />
<glyph unicode="2" glyph-name="two" horiz-adv-x="600" d="M90 0Q80 0 80 10Q80 21 87 27Q314 229 397 340T481 540Q481 626 432 673T295 720Q194 720 105 668Q102 666 99 667T95 673Q95 686 105 691Q195 740 295 740Q392 740 446 687T501 540Q501 444 416 331T111
23Q110 22 110 21T111 20H500Q510 20 510 10T500 0H90Z" />
<glyph unicode="3" glyph-name="three" horiz-adv-x="600" d="M95 710Q85 710 85 720T95 730H490Q500 730 500 720T493 703L212 423Q211 422 211 421T212 420H263Q510 420 510 220Q510 -10 260 -10Q172 -10 104 29Q95 35 95 47Q95 51 98 53T104 53Q174 10 260
10Q490 10 490 220Q490 400 263 400H193Q183 400 183 410T190 427L471 707V709Q471 710 470 710H95Z" />
<glyph unicode="4" glyph-name="four" horiz-adv-x="600" d="M40 213V211Q40 210 41 210H386Q395 210 395 218V695Q395 696 394 696Q392 696 392 695L40 213ZM25 190Q15 190 15 200T21 218L389 722Q395 730 405 730T415 720V218Q415 210 424 210H545Q555 210 555
200T545 190H424Q415 190 415 181V10Q415 0 405 0T395 10V181Q395 190 386 190H25Z" />
<glyph unicode="5" glyph-name="five" horiz-adv-x="600" d="M105 30Q95 35 95 46Q95 50 98 52T105 52Q183 10 270 10Q380 10 437 66T495 230Q495 324 440 374T280 425Q198 425 134 381Q126 375 115 375Q105 375 105 386L127 673Q129 697 146 713T187 730H475Q485
730 485 720T475 710H158Q149 710 149 702L127 401V400H129Q197 445 280 445Q392 445 453 389T515 230Q515 114 452 52T270 -10Q182 -10 105 30Z" />
<glyph unicode="6" glyph-name="six" horiz-adv-x="600" d="M320 460Q219 460 153 403T87 260Q87 240 89 219T103 157T137 87T204 34T310 10Q415 10 472 70T530 240Q530 339 472 399T320 460ZM310 -10Q191 -10 126 71T60 320Q60 532 132 636T335 740Q415 740 485
714Q495 711 495 699Q495 695 492 693T485 692Q414 720 335 720Q215 720 148 623T79 332Q79 330 80 330T81 331Q105 398 170 439T320 480Q423 480 486 414T550 240Q550 122 486 56T310 -10Z" />
<glyph unicode="7" glyph-name="seven" horiz-adv-x="600" d="M85 710Q75 710 75 720T85 730H515Q525 730 525 720Q525 711 520 701Q347 411 219 10Q216 0 206 0Q202 0 200 3T198 10Q325 412 501 707Q501 708 501 708T502 709T501 710H85Z" />
<glyph unicode="8" glyph-name="eight" horiz-adv-x="600" d="M291 378Q70 342 70 190Q70 107 132 59T300 10T468 58T530 190Q530 342 309 378Q300 380 291 378ZM99 575Q99 510 150 464T291 402Q300 400 309 402Q398 417 449 463T501 575Q501 641 446 680T300
720T154 681T99 575ZM248 389Q249 389 249 390Q249 392 248 392Q168 414 124 462T79 575Q79 650 139 695T300 740T460 695T521 575Q521 510 477 462T352 392Q351 392 351 390Q351 389 352 389Q550 342 550 190Q550 98 483 44T300 -10T118 44T50 190Q50 342 248
389Z" />
<glyph unicode="9" glyph-name="nine" horiz-adv-x="600" d="M295 720Q197 720 136 661T75 500Q75 395 132 333T285 270Q387 270 452 329T518 480Q518 490 517 502T512 539T499 586T474 633T435 677T376 708T295 720ZM285 250Q181 250 118 317T55 500Q55 610 122
675T295 740Q414 740 479 661T545 420Q545 -10 270 -10Q185 -10 110 16Q100 19 100 31Q100 35 103 37T110 38Q185 10 270 10Q396 10 459 107T525 402Q525 404 524 404Q522 404 522 403Q497 333 434 292T285 250Z" />
<glyph unicode=":" glyph-name="colon" horiz-adv-x="302" d="M161 390T151 390T141 400V490Q141 500 151 500T161 490V400Q161 390 151 390ZM161 0T151 0T141 10V100Q141 110 151 110T161 100V10Q161 0 151 0Z" />
<glyph unicode=";" glyph-name="semicolon" horiz-adv-x="317" d="M94 -110Q90 -110 88 -107T87 -100L160 100Q163 110 174 110Q177 110 179 107T181 100L108 -100Q104 -110 94 -110ZM168 390T158 390T148 400V490Q148 500 158 500T168 490V400Q168 390 158 390Z" />
<glyph unicode="&lt;" glyph-name="less" horiz-adv-x="652" d="M83 271Q71 278 71 290T83 309L541 545Q551 549 551 539Q551 527 541 522L90 291Q89 291 89 290T90 289L541 58Q551 53 551 41Q551 31 541 35L83 271Z" />
<glyph unicode="=" glyph-name="equal" horiz-adv-x="752" d="M106 390Q96 390 96 400T106 410H646Q656 410 656 400T646 390H106ZM106 170Q96 170 96 180T106 190H646Q656 190 656 180T646 170H106Z" />
<glyph unicode="&gt;" glyph-name="greater" horiz-adv-x="652" d="M111 58L562 289Q563 289 563 290T562 291L111 523Q101 528 101 539Q101 549 111 545L569 309Q581 302 581 290T569 271L111 35Q101 31 101 41Q101 53 111 58Z" />
<glyph unicode="?" glyph-name="question" horiz-adv-x="622" d="M101 687Q97 686 94 688T91 694Q91 705 101 708Q201 740 311 740Q426 740 488 701T551 590Q551 541 529 502T482 444T414 397Q384 378 371 369T335 340T302 303T282 259T271 201Q271 190 261 190T251
200Q252 243 265 276T304 337T349 377T403 414Q435 434 452 447T490 482T521 530T531 590Q531 652 474 686T311 720Q203 720 101 687ZM251 110T261 110T271 100V10Q271 0 261 0T251 10V100Q251 110 261 110Z" />
<glyph unicode="@" glyph-name="at" horiz-adv-x="822" d="M549 240V280Q549 366 510 413T398 460Q328 460 287 406T246 260Q246 166 286 113T398 60Q470 60 509 107T549 240ZM411 -105Q250 -105 148 -3T46 260T148 523T411 625Q575 625 675 525T776 260Q776 172
744 100Q734 77 711 64T660 50H606Q583 50 566 67T549 107V132Q549 133 548 133Q546 133 546 131Q504 40 398 40Q318 40 272 98T226 260Q226 362 272 421T398 480Q504 480 546 389Q546 387 548 387Q549 387 549 388V460Q549 470 559 470T569 460V79Q569 70 578
70H697Q705 70 710 78Q756 158 756 260Q756 414 661 509T411 605Q259 605 163 509T66 260T162 12T411 -85Q521 -85 604 -32Q613 -27 618 -35Q623 -44 615 -49Q526 -105 411 -105Z" />
<glyph unicode="A" glyph-name="A" horiz-adv-x="635" d="M317 712L157 278Q155 270 162 270H474Q481 270 479 278L319 712Q319 713 318 713T317 712ZM44 0Q40 0 38 3T37 10L298 716Q303 730 317 730T338 716L599 10Q600 6 598 3T592 0Q581 0 578 10L492 242Q488
250 481 250H155Q147 250 144 242L58 10Q54 0 44 0Z" />
<glyph unicode="B" glyph-name="B" horiz-adv-x="577" d="M111 381V32Q111 24 119 22Q182 10 251 10Q511 10 511 210Q511 289 439 339T231 390H120Q111 390 111 381ZM111 698V419Q111 410 120 410H231Q346 410 408 452T471 570Q471 720 241 720Q178 720 119 708Q111
706 111 698ZM146 -3Q122 0 107 19T91 64V666Q91 691 107 710T148 734Q194 740 241 740Q315 740 367 725T444 684T480 630T491 570Q491 440 341 403Q340 403 340 402Q340 400 341 400Q432 384 481 331T531 210Q531 177 525 149T499 90T450 39T369 4T251 -10Q194
-10 146 -3Z" />
<glyph unicode="C" glyph-name="C" horiz-adv-x="592" d="M331 -10Q203 -10 125 89T46 365T121 641T322 740Q412 740 491 709Q501 706 501 694Q501 690 498 688T491 687Q411 720 322 720Q202 720 134 626T66 365Q66 201 137 106T331 10Q416 10 496 43Q500 44 503
42T506 36Q506 24 496 21Q417 -10 331 -10Z" />
<glyph unicode="D" glyph-name="D" horiz-adv-x="637" d="M111 698V32Q111 24 119 22Q176 10 241 10Q410 10 490 99T571 375Q571 551 491 635T241 720Q176 720 119 708Q111 706 111 698ZM148 -4Q123 0 107 19T91 64V666Q91 691 106 710T146 733Q200 740 241 740Q591
740 591 375Q591 -10 241 -10Q193 -10 148 -4Z" />
<glyph unicode="E" glyph-name="E" horiz-adv-x="572" d="M148 0Q125 0 108 17T91 57V673Q91 696 108 713T148 730H481Q491 730 491 720T481 710H120Q111 710 111 702V419Q111 410 120 410H461Q471 410 471 400T461 390H120Q111 390 111 382V29Q111 20 120 20H481Q491
20 491 10T481 0H148Z" />
<glyph unicode="F" glyph-name="F" horiz-adv-x="557" d="M111 0T101 0T91 10V673Q91 696 108 713T148 730H471Q481 730 481 720T471 710H120Q111 710 111 702V409Q111 400 120 400H451Q461 400 461 390T451 380H120Q111 380 111 371V10Q111 0 101 0Z" />
<glyph unicode="G" glyph-name="G" horiz-adv-x="672" d="M366 -10Q224 -10 135 90T46 365Q46 537 137 638T376 740Q465 740 546 713Q556 710 556 699Q556 695 553 693T546 692Q463 720 376 720Q235 720 151 624T66 365T147 107T366 10Q470 10 559 44Q566 47 566
55V381Q566 390 557 390H296Q286 390 286 400T296 410H529Q552 410 569 393T586 353V90Q586 64 572 42T533 13Q460 -10 366 -10Z" />
<glyph unicode="H" glyph-name="H" horiz-adv-x="642" d="M111 0T101 0T91 10V720Q91 730 101 730T111 720V419Q111 410 120 410H523Q531 410 531 419V720Q531 730 541 730T551 720V10Q551 0 541 0T531 10V381Q531 390 523 390H120Q111 390 111 381V10Q111 0 101 0Z" />
<glyph unicode="I" glyph-name="I" horiz-adv-x="282" d="M151 0T141 0T131 10V720Q131 730 141 730T151 720V10Q151 0 141 0Z" />
<glyph unicode="J" glyph-name="J" horiz-adv-x="507" d="M55 17Q46 20 46 31Q46 35 48 37T55 38Q134 10 216 10Q314 10 360 65T406 240V720Q406 730 416 730T426 720V240Q426 111 374 51T216 -10Q134 -10 55 17Z" />
<glyph unicode="K" glyph-name="K" horiz-adv-x="562" d="M111 0T101 0T91 10V720Q91 730 101 730T111 720V394H112H114L480 720Q492 730 506 730Q510 730 511 727T510 720L132 386Q126 380 132 374L520 10Q522 8 521 4T516 0Q503 0 491 10L114 366H112H111V10Q111
0 101 0Z" />
<glyph unicode="L" glyph-name="L" horiz-adv-x="567" d="M148 0Q125 0 108 17T91 57V720Q91 730 101 730T111 720V29Q111 20 120 20H491Q501 20 501 10T491 0H148Z" />
<glyph unicode="M" glyph-name="M" horiz-adv-x="802" d="M111 0T101 0T91 10V714Q91 730 107 730Q124 730 132 716L399 271Q399 270 401 270T403 271L670 716Q678 730 695 730Q711 730 711 714V10Q711 0 701 0T691 10V708Q691 709 690 709Q688 709 688 708L419
260Q412 250 401 250T383 260L114 708Q114 709 112 709Q111 709 111 708V10Q111 0 101 0Z" />
<glyph unicode="N" glyph-name="N" horiz-adv-x="672" d="M111 0T101 0T91 10V714Q91 730 107 730Q124 730 132 716L558 22Q558 21 560 21Q561 21 561 22V720Q561 730 571 730T581 720V16Q581 0 565 0Q548 0 540 14L114 708Q114 709 112 709Q111 709 111 708V10Q111
0 101 0Z" />
<glyph unicode="O" glyph-name="O" horiz-adv-x="692" d="M482 720T346 720T138 629T66 365T138 102T346 10T554 101T626 365T554 628ZM489 -10T346 -10T125 88T46 365T124 642T346 740T567 642T646 365T568 88Z" />
<glyph unicode="P" glyph-name="P" horiz-adv-x="572" d="M111 698V343Q111 335 120 333Q192 325 261 325Q382 325 446 376T511 525Q511 621 448 670T261 720Q188 720 120 708Q111 706 111 698ZM111 0T101 0T91 10V667Q91 692 107 711T147 733Q200 740 261 740Q392
740 461 685T531 525Q531 420 461 363T261 305Q192 305 120 313Q111 315 111 306V10Q111 0 101 0Z" />
<glyph unicode="Q" glyph-name="Q" horiz-adv-x="721" d="M482 720T346 720T138 629T66 365T138 102T346 10T554 101T626 365T554 628ZM346 -10Q203 -10 125 88T46 365T124 642T346 740T567 642T646 365Q646 220 594 127T444 4Q442 4 442 3T444 2Q629 -21 719
-141Q721 -144 720 -147T714 -150Q702 -150 694 -141Q586 -10 346 -10Z" />
<glyph unicode="R" glyph-name="R" horiz-adv-x="589" d="M111 699V384Q111 375 120 375H231Q372 375 436 417T501 545Q501 720 251 720Q185 720 119 709Q111 707 111 699ZM111 0T101 0T91 10V668Q91 693 107 712T147 734Q198 740 251 740Q521 740 521 545Q521
395 342 364Q340 364 340 363Q340 361 342 361Q369 350 390 320T447 210L537 10Q538 6 536 3T530 0Q520 0 515 10L429 202Q407 251 394 275T368 318T334 344T294 352T231 355H120Q111 355 111 346V10Q111 0 101 0Z" />
<glyph unicode="S" glyph-name="S" horiz-adv-x="532" d="M258 380Q66 441 66 585Q66 660 116 700T261 740T441 700Q451 695 451 684Q451 674 441 678Q354 720 261 720Q86 720 86 585Q86 457 264 400Q370 366 418 314T466 180Q466 88 413 39T261 -10Q159 -10 82
38Q71 44 71 57Q71 61 75 62T82 62Q159 10 261 10Q352 10 399 53T446 180Q446 254 402 301T258 380Z" />
<glyph unicode="T" glyph-name="T" horiz-adv-x="632" d="M76 710Q66 710 66 720T76 730H556Q566 730 566 720T556 710H335Q326 710 326 701V10Q326 0 316 0T306 10V701Q306 710 297 710H76Z" />
<glyph unicode="U" glyph-name="U" horiz-adv-x="642" d="M435 -10T321 -10T144 54T81 240V720Q81 730 91 730T101 720V240Q101 127 157 69T321 10T485 68T541 240V720Q541 730 551 730T561 720V240Q561 118 498 54Z" />
<glyph unicode="V" glyph-name="V" horiz-adv-x="635" d="M298 14L37 720Q35 724 37 727T44 730Q54 730 58 720L317 17Q317 16 318 16T319 17L578 720Q581 730 592 730Q595 730 597 727T599 720L338 14Q332 0 318 0T298 14Z" />
<glyph unicode="W" glyph-name="W" horiz-adv-x="868" d="M241 0T234 0T222 4T214 16L51 720Q50 724 52 727T59 730Q70 730 72 720L233 18Q233 17 234 17T235 18L414 714Q416 721 421 725T434 730T447 726T454 714L633 18Q633 17 634 17T635 18L796 720Q798 730
809 730Q813 730 815 727T817 720L654 16Q653 9 647 5T634 0T622 4T614 16L435 712Q435 713 434 713T433 712L254 16Q253 9 247 5Z" />
<glyph unicode="X" glyph-name="X" horiz-adv-x="610" d="M67 0Q63 0 62 3T62 10L288 362Q293 369 288 376L67 720Q65 723 66 726T72 730Q85 730 91 720L303 388Q303 387 305 387T307 388L519 720Q526 730 538 730Q542 730 543 727T543 720L322 376Q317 369 322
362L548 10Q550 7 549 4T543 0Q531 0 524 10L307 350Q307 351 305 351T303 350L86 10Q80 0 67 0Z" />
<glyph unicode="Y" glyph-name="Y" horiz-adv-x="610" d="M290 334L37 720Q35 723 36 726T42 730Q55 730 61 720L303 348H305H307L549 720Q556 730 568 730Q572 730 573 727T573 720L320 334Q315 326 315 318V10Q315 0 305 0T295 10V318Q295 326 290 334Z" />
<glyph unicode="Z" glyph-name="Z" horiz-adv-x="602" d="M86 29L495 707Q495 708 495 708T496 709T495 710H91Q81 710 81 720T91 730H511Q521 730 521 720Q521 711 516 701L107 23Q107 22 107 22T106 21T107 20H511Q521 20 521 10T511 0H91Q81 0 81 10Q81 19 86 29Z" />
<glyph unicode="[" glyph-name="bracketleft" horiz-adv-x="442" d="M178 -110Q155 -110 138 -93T121 -53V713Q121 736 138 753T178 770H341Q351 770 351 760T340 750H150Q141 750 141 742V-81Q141 -90 150 -90H341Q351 -90 351 -100T341 -110H178Z" />
<glyph unicode="\" glyph-name="backslash" horiz-adv-x="454" d="M391 -30L57 720Q55 724 57 727T64 730Q74 730 79 720L413 -30Q414 -34 412 -37T406 -40Q396 -40 391 -30Z" />
<glyph unicode="]" glyph-name="bracketright" horiz-adv-x="442" d="M292 -90Q301 -90 301 -82V741Q301 750 293 750H101Q91 750 91 760T101 770H264Q287 770 304 753T321 713V-53Q321 -76 304 -93T264 -110H101Q91 -110 91 -100T101 -90H292Z" />
<glyph unicode="^" glyph-name="asciicircum" horiz-adv-x="583" d="M53 280Q49 280 47 283T47 290L270 717Q276 730 291 730T314 717L537 290Q538 286 536 283T531 280Q519 280 514 290L293 715Q293 716 292 716T291 715L70 290Q65 280 53 280Z" />
<glyph unicode="_" glyph-name="underscore" horiz-adv-x="536" d="M8 -110Q-2 -110 -2 -100T8 -90H528Q538 -90 538 -100T528 -110H8Z" />
<glyph unicode="`" glyph-name="grave" horiz-adv-x="207" d="M137 600L22 800Q20 803 21 806T27 810Q39 810 45 800L160 600Q162 597 161 594T155 590Q144 590 137 600Z" />
<glyph unicode="a" glyph-name="a" horiz-adv-x="512" d="M416 210V291Q416 300 407 300H346Q76 300 76 140Q76 79 110 45T206 10Q297 10 356 66T416 210ZM407 320Q416 320 416 329V370Q416 447 383 478T266 510Q171 510 91 477Q87 476 84 478T81 484Q81 495 92
499Q172 530 266 530Q358 530 397 493T436 370V10Q436 0 426 0T416 10V115Q416 116 415 116Q413 116 413 114Q386 57 332 24T206 -10Q136 -10 96 30T56 140Q56 167 63 190T89 238T140 280T224 309T346 320H407Z" />
<glyph unicode="b" glyph-name="b" horiz-adv-x="557" d="M106 355V165Q106 103 163 57T296 10Q388 10 437 74T486 260Q486 383 438 446T296 510Q220 510 163 464T106 355ZM106 0T96 0T86 10V740Q86 750 96 750T106 740V428Q106 427 107 427Q109 427 109 428Q136
473 186 501T296 530Q397 530 451 460T506 260Q506 131 451 61T296 -10Q237 -10 187 18T109 92Q109 93 107 93Q106 93 106 92V10Q106 0 96 0Z" />
<glyph unicode="c" glyph-name="c" horiz-adv-x="492" d="M281 -10Q167 -10 107 58T46 260Q46 393 105 461T271 530Q340 530 400 509Q411 505 411 494Q411 490 408 488T400 488Q338 510 271 510Q211 510 169 488T105 427T75 348T66 260Q66 10 281 10Q346 10 406
32Q416 36 416 26Q416 15 405 11Q348 -10 281 -10Z" />
<glyph unicode="d" glyph-name="d" horiz-adv-x="557" d="M261 510Q168 510 120 447T71 260Q71 139 120 75T261 10Q337 10 394 56T451 165V355Q451 417 394 463T261 510ZM261 -10Q161 -10 106 60T51 260Q51 390 105 460T261 530Q320 530 370 502T448 428Q448 427
450 427Q451 427 451 428V740Q451 750 461 750T471 740V10Q471 0 461 0T451 10V92Q451 93 450 93Q448 93 448 92Q421 47 371 19T261 -10Z" />
<glyph unicode="e" glyph-name="e" horiz-adv-x="515" d="M266 510Q79 510 67 289Q67 280 76 280H436Q445 280 445 289Q438 510 266 510ZM281 -10Q46 -10 46 260Q46 324 59 373T94 452T146 499T204 523T266 530Q447 530 464 316Q466 293 450 277T409 260H75Q66
260 66 252Q69 10 281 10Q358 10 427 38Q431 39 433 37T436 31Q436 19 427 16Q359 -10 281 -10Z" />
<glyph unicode="f" glyph-name="f" horiz-adv-x="507" d="M71 480Q61 480 61 490T71 500H202Q211 500 211 509V590Q211 671 243 705T351 740Q389 740 422 728Q431 725 431 714Q431 710 429 708T422 707Q386 720 351 720Q284 720 258 692T231 590V509Q231 500 240
500H411Q421 500 421 490T411 480H240Q231 480 231 471V10Q231 0 221 0T211 10V471Q211 480 202 480H71Z" />
<glyph unicode="g" glyph-name="g" horiz-adv-x="542" d="M256 510Q71 510 71 260Q71 147 120 84T256 20Q336 20 388 66T441 185V345Q441 417 389 463T256 510ZM256 0Q160 0 106 69T51 260Q51 340 69 396T119 479T184 518T256 530Q318 530 366 503T438 430Q438
428 440 428Q441 428 441 429V510Q441 520 451 520T461 510V20Q461 -111 409 -170T241 -230Q168 -230 111 -209Q101 -206 101 -194Q101 -184 111 -188Q171 -210 241 -210Q347 -210 394 -156T441 20V101Q441 102 440 102Q438 102 438 100Q414 54 366 27T256 0Z"
/>
<glyph unicode="h" glyph-name="h" horiz-adv-x="542" d="M106 0T96 0T86 10V740Q86 750 96 750T106 740V413Q106 412 107 412Q109 412 109 413Q138 461 190 495T296 530Q386 530 426 480T466 310V10Q466 0 456 0T446 10V310Q446 428 410 469T296 510Q232 510
169 455T106 350V10Q106 0 96 0Z" />
<glyph unicode="i" glyph-name="i" horiz-adv-x="282" d="M151 0T141 0T131 10V510Q131 520 141 520T151 510V10Q151 0 141 0ZM151 650T141 650T131 660V740Q131 750 141 750T151 740V660Q151 650 141 650Z" />
<glyph unicode="j" glyph-name="j" horiz-adv-x="337" d="M6 -220Q-4 -220 -4 -210T7 -200Q118 -199 152 -167T186 -30V510Q186 520 196 520T206 510V-30Q206 -143 166 -181T6 -220ZM206 650T196 650T186 660V740Q186 750 196 750T206 740V660Q206 650 196 650Z" />
<glyph unicode="k" glyph-name="k" horiz-adv-x="505" d="M106 0T96 0T86 10V740Q86 750 96 750T106 740V285Q106 284 107 284H109L414 510Q427 520 444 520Q448 520 449 516T447 510L128 275Q123 270 128 265L453 10Q455 8 454 4T450 0Q434 0 421 10L109 256H107Q106
256 106 255V10Q106 0 96 0Z" />
<glyph unicode="l" glyph-name="l" horiz-adv-x="282" d="M151 0T141 0T131 10V740Q131 750 141 750T151 740V10Q151 0 141 0Z" />
<glyph unicode="m" glyph-name="m" horiz-adv-x="777" d="M101 0T91 0T81 10V510Q81 520 91 520T101 510V429Q101 428 102 428Q104 428 104 429Q127 473 167 501T251 530Q367 530 392 413Q392 412 394 412Q395 412 395 414Q416 464 459 497T551 530Q628 530 664
481T701 330V10Q701 0 691 0T681 10V330Q681 424 650 467T551 510Q495 510 448 460T401 350V10Q401 0 391 0T381 10V330Q381 426 350 468T251 510Q195 510 148 460T101 350V10Q101 0 91 0Z" />
<glyph unicode="n" glyph-name="n" horiz-adv-x="537" d="M101 0T91 0T81 10V510Q81 520 91 520T101 510V416Q101 415 102 415Q104 415 104 416Q133 463 186 496T291 530Q381 530 421 480T461 310V10Q461 0 451 0T441 10V310Q441 428 405 469T291 510Q225 510
163 457T101 350V10Q101 0 91 0Z" />
<glyph unicode="o" glyph-name="o" horiz-adv-x="542" d="M370 510T271 510T119 446T66 260T119 75T271 10T423 74T476 260T423 445ZM378 -10T271 -10T105 60T46 260T105 459T271 530T437 460T496 260T437 61Z" />
<glyph unicode="p" glyph-name="p" horiz-adv-x="552" d="M101 345V175Q101 106 155 58T291 10Q383 10 432 74T481 260Q481 383 433 446T291 510Q209 510 155 462T101 345ZM101 -220T91 -220T81 -210V510Q81 520 91 520T101 510V427Q101 426 102 426Q104 426 104
428Q129 475 178 502T291 530Q392 530 446 460T501 260Q501 131 446 61T291 -10Q227 -10 178 17T104 92Q104 94 102 94Q101 94 101 93V-210Q101 -220 91 -220Z" />
<glyph unicode="q" glyph-name="q" horiz-adv-x="552" d="M261 510Q168 510 120 447T71 260Q71 139 120 75T261 10Q343 10 397 58T451 175V345Q451 414 397 462T261 510ZM261 -10Q161 -10 106 60T51 260Q51 390 105 460T261 530Q325 530 374 503T448 428Q448 426
450 426Q451 426 451 427V510Q451 520 461 520T471 510V-210Q471 -220 461 -220T451 -210V93Q451 94 450 94Q448 94 448 92Q423 45 374 18T261 -10Z" />
<glyph unicode="r" glyph-name="r" horiz-adv-x="422" d="M101 0T91 0T81 10V510Q81 520 91 520T101 510V374Q101 373 102 373T103 374Q132 442 194 481T341 520H351Q361 520 361 510T351 500H341Q235 500 168 436T101 270V10Q101 0 91 0Z" />
<glyph unicode="s" glyph-name="s" horiz-adv-x="482" d="M236 10Q311 10 353 42T396 130Q396 175 364 208T234 260Q144 278 105 310T66 400Q66 459 112 494T236 530Q316 530 390 504Q401 500 401 489Q401 485 398 483T390 482Q310 510 236 510Q166 510 126 481T86
400Q86 355 118 327T238 280Q330 262 373 226T416 130Q416 65 368 28T236 -10Q154 -10 77 25Q66 30 66 41Q66 45 69 47T76 48Q155 10 236 10Z" />
<glyph unicode="t" glyph-name="t" horiz-adv-x="487" d="M66 480Q56 480 56 490T66 500H172Q181 500 181 509V680Q181 690 191 690T201 680V509Q201 500 210 500H396Q406 500 406 490T396 480H210Q201 480 201 471V140Q201 60 225 35T316 10Q354 10 386 23Q390
24 393 22T396 16Q396 5 387 2Q354 -10 316 -10Q239 -10 210 22T181 140V471Q181 480 172 480H66Z" />
<glyph unicode="u" glyph-name="u" horiz-adv-x="532" d="M241 -10Q156 -10 116 36T76 190V510Q76 520 86 520T96 510V190Q96 86 132 48T241 10Q307 10 369 63T431 170V510Q431 520 441 520T451 510V10Q451 0 441 0T431 10V104Q431 105 430 105Q428 105 428 104Q399
57 346 24T241 -10Z" />
<glyph unicode="v" glyph-name="v" horiz-adv-x="525" d="M242 14L42 510Q40 514 42 517T49 520Q60 520 64 510L262 17Q262 16 263 16T264 17L462 510Q465 520 477 520Q480 520 482 517T484 510L284 14Q278 0 263 0T242 14Z" />
<glyph unicode="w" glyph-name="w" horiz-adv-x="777" d="M205 14L52 510Q50 514 52 517T59 520Q69 520 73 510L223 20Q223 19 224 19T225 20L370 506Q374 520 388 520T408 506L553 20Q553 19 554 19T555 20L705 510Q708 520 719 520Q722 520 724 517T726 510L573
14Q568 0 554 0T535 14L390 500Q390 501 389 501T388 500L243 14Q238 0 224 0T205 14Z" />
<glyph unicode="x" glyph-name="x" horiz-adv-x="510" d="M62 0Q58 0 57 3T57 10L238 257Q243 264 238 270L62 510Q60 513 61 516T67 520Q79 520 87 510L253 281Q253 280 255 280T257 281L423 510Q432 520 443 520Q447 520 448 517T448 510L272 270Q267 264 272
257L453 10Q455 7 454 4T448 0Q437 0 428 10L257 246H255H253L82 10Q74 0 62 0Z" />
<glyph unicode="y" glyph-name="y" horiz-adv-x="525" d="M240 20L42 510Q40 514 42 517T49 520Q60 520 64 510L253 38Q253 37 254 37T255 38L462 510Q467 520 477 520Q480 520 482 517T484 510L167 -210Q162 -220 152 -220Q148 -220 146 -217T145 -210L239 4Q242
13 240 20Z" />
<glyph unicode="z" glyph-name="z" horiz-adv-x="522" d="M87 28L415 497V499Q415 500 414 500H91Q81 500 81 510T91 520H431Q441 520 441 510T435 492L107 23V21Q107 20 108 20H431Q441 20 441 10T431 0H91Q81 0 81 10T87 28Z" />
<glyph unicode="{" glyph-name="braceleft" horiz-adv-x="492" d="M76 320Q66 320 66 330T76 340H116Q153 340 174 375T196 470V630Q196 704 224 737T316 770H386Q396 770 396 760T386 750H316Q266 750 241 725T216 630V470Q216 366 158 332Q156 332 156 330T158
328Q216 294 216 190V30Q216 -40 241 -65T316 -90H386Q396 -90 396 -100T386 -110H316Q253 -110 225 -77T196 30V190Q196 249 175 284T116 320H76Z" />
<glyph unicode="|" glyph-name="bar" horiz-adv-x="302" d="M161 -220T151 -220T141 -210V800Q141 810 151 810T161 800V-210Q161 -220 151 -220Z" />
<glyph unicode="}" glyph-name="braceright" horiz-adv-x="492" d="M334 328Q336 328 336 330T334 332Q276 366 276 470V630Q276 700 251 725T176 750H106Q96 750 96 760T106 770H176Q239 770 267 737T296 630V470Q296 411 317 376T376 340H416Q426 340 426 330T416
320H376Q339 320 318 285T296 190V30Q296 -44 268 -77T176 -110H106Q96 -110 96 -100T106 -90H176Q226 -90 251 -65T276 30V190Q276 294 334 328Z" />
<glyph unicode="~" glyph-name="asciitilde" horiz-adv-x="674" d="M79 277Q73 269 65 275Q57 280 63 289Q122 370 213 370Q283 370 344 307Q400 250 461 250Q542 250 595 323Q601 331 609 325Q617 320 611 311Q552 230 461 230Q392 230 330 293Q275 350 213 350Q132
350 79 277Z" />
<glyph unicode="&#xa0;" glyph-name="uni00A0" horiz-adv-x="256" />
<glyph unicode="&#xa1;" glyph-name="exclamdown" horiz-adv-x="262" d="M141 -220T131 -220T121 -210V320Q121 330 131 330T141 320V-210Q141 -220 131 -220ZM141 410T131 410T121 420V510Q121 520 131 520T141 510V420Q141 410 131 410Z" />
<glyph unicode="&#xa2;" glyph-name="cent" horiz-adv-x="497" d="M245 508Q66 487 66 260Q66 37 245 13Q249 12 251 14T253 21V500Q253 504 251 506T245 508ZM244 -7Q46 19 46 260Q46 506 244 528Q253 530 253 537V680Q253 690 263 690T273 680V538Q273 530 281
530Q350 530 410 509Q421 505 421 494Q421 490 418 488T410 488Q348 510 281 510Q273 510 273 501V19Q273 10 282 10H291Q356 10 416 32Q426 36 426 26Q426 15 415 11Q358 -10 291 -10H282Q273 -10 273 -18V-170Q273 -180 263 -180T253 -170V-16Q253 -9 244 -7Z"
/>
<glyph unicode="&#xa3;" glyph-name="sterling" horiz-adv-x="612" d="M91 0Q81 0 81 10Q81 19 91 21Q136 29 168 77T201 200V346Q201 355 192 355H111Q101 355 101 365T111 375H192Q201 375 201 384V550Q201 642 254 691T406 740Q457 740 506 721Q516 718 516
706Q516 702 514 700T507 699Q460 720 406 720Q315 720 268 677T221 550V384Q221 375 230 375H461Q471 375 471 365T461 355H230Q221 355 221 346V200Q221 142 200 95T141 23Q140 23 140 21Q140 20 141 20H521Q531 20 531 10T521 0H91Z" />
<glyph unicode="&#xa4;" glyph-name="currency" horiz-adv-x="648" d="M124 448T124 365T183 224T324 165T465 223T524 365T465 506T324 565T183 507ZM69 125L156 211Q161 216 156 223Q104 285 104 365T156 507Q161 514 156 519L69 605Q62 612 69 620T84 620L170
533Q175 528 182 533Q244 585 324 585T466 533Q473 528 478 533L564 620Q572 628 579 620T579 605L492 519Q487 514 492 507Q544 445 544 365T492 223Q487 216 492 211L579 125Q586 118 579 110T564 110L478 197Q473 202 466 197Q404 145 324 145T182 197Q175 202
170 197L84 110Q76 102 69 110T69 125Z" />
<glyph unicode="&#xa5;" glyph-name="yen" horiz-adv-x="620" d="M287 347L42 720Q40 723 41 726T47 730Q60 730 66 720L308 348H310H312L554 720Q561 730 573 730Q577 730 578 727T578 720L333 347Q332 345 333 343T337 340H530Q540 340 540 330T530 320H329Q320
320 320 311V204Q320 195 329 195H530Q540 195 540 185T530 175H329Q320 175 320 166V10Q320 0 310 0T300 10V166Q300 175 291 175H90Q80 175 80 185T90 195H291Q300 195 300 204V311Q300 320 291 320H90Q80 320 80 330T90 340H283Q286 340 287 342T287 347Z" />
<glyph unicode="&#xa6;" glyph-name="brokenbar" horiz-adv-x="302" d="M161 -140T151 -140T141 -130V210Q141 220 151 220T161 210V-130Q161 -140 151 -140ZM161 370T151 370T141 380V720Q141 730 151 730T161 720V380Q161 370 151 370Z" />
<glyph unicode="&#xa7;" glyph-name="section" horiz-adv-x="502" d="M188 442Q140 426 113 391T86 310Q86 250 125 215T253 160Q277 154 298 148Q306 145 314 148Q362 164 389 199T416 280Q416 340 377 375T249 430Q225 436 204 442Q196 445 188 442ZM160 452Q162
453 162 455T160 459Q76 499 76 590Q76 658 124 699T251 740Q329 740 401 707Q411 702 411 691Q411 681 401 685Q330 720 251 720Q180 720 138 685T96 590Q96 538 129 504T253 450Q349 428 392 388T436 280Q436 183 342 138Q340 137 340 135T342 131Q426 91 426
0Q426 -68 378 -109T251 -150Q173 -150 101 -117Q91 -112 91 -101Q91 -91 101 -95Q172 -130 251 -130Q322 -130 364 -95T406 0Q406 52 373 86T249 140Q153 161 110 201T66 310Q66 407 160 452Z" />
<glyph unicode="&#xa8;" glyph-name="dieresis" horiz-adv-x="402" d="M311 610T301 610T291 620V720Q291 730 301 730T311 720V620Q311 610 301 610ZM111 610T101 610T91 620V720Q91 730 101 730T111 720V620Q111 610 101 610Z" />
<glyph unicode="&#xa9;" glyph-name="copyright" horiz-adv-x="822" d="M418 148Q339 148 290 205T241 365T287 525T412 582Q465 582 513 566Q523 563 523 552Q523 548 520 546T513 545Q466 562 412 562Q341 562 301 510T261 365Q261 274 303 221T418 168Q469
168 516 185Q520 186 523 184T526 178Q526 167 516 164Q469 148 418 148ZM554 710T411 710T167 609T66 365T167 121T411 20T655 121T756 365T655 609ZM562 0T411 0T153 107T46 365T153 623T411 730T669 623T776 365T669 107Z" />
<glyph unicode="&#xaa;" glyph-name="ordfeminine" horiz-adv-x="622" d="M106 224Q96 224 96 234T106 244H516Q526 244 526 234T516 224H106ZM428 488V546Q428 554 420 554H376Q340 554 309 550T242 533T185 494T164 428Q164 381 190 355T264 328Q336 328 382
373T428 488ZM420 574Q428 574 428 582V612Q428 673 403 696T312 720Q240 720 175 695Q171 693 168 695T164 701Q164 712 175 716Q237 740 312 740Q385 740 416 711T448 612V326Q448 316 438 316T428 326V402V403Q426 403 426 401Q403 358 361 333T264 308Q208
308 176 340T144 428Q144 496 202 535T376 574H420Z" />
<glyph unicode="&#xab;" glyph-name="guillemotleft" horiz-adv-x="712" d="M601 59L358 273Q351 279 351 290T358 307L601 521Q604 523 607 522T611 517Q611 505 601 495L370 292Q369 291 369 290L370 288L601 85Q611 75 611 63Q611 59 608 58T601 59ZM321 495L90
292Q89 291 89 290L90 288L321 85Q331 75 331 63Q331 59 328 58T321 59L78 273Q71 279 71 290T78 307L321 521Q324 523 327 522T331 517Q331 505 321 495Z" />
<glyph unicode="&#xac;" glyph-name="logicalnot" horiz-adv-x="642" d="M76 390Q66 390 66 400T76 410H489Q512 410 529 393T546 353V170Q546 160 536 160T526 170V381Q526 390 517 390H76Z" />
<glyph unicode="&#xad;" glyph-name="uni00AD" horiz-adv-x="452" d="M96 280Q86 280 86 290T96 300H356Q366 300 366 290T356 280H96Z" />
<glyph unicode="&#xae;" glyph-name="registered" horiz-adv-x="822" d="M293 548V384Q293 375 301 375H368Q464 375 504 397T545 469Q545 484 542 494T526 523T476 551T382 562Q336 562 301 558Q293 556 293 548ZM293 153T283 153T273 163V517Q273 542 289 561T329
581Q363 583 382 583Q565 583 565 469Q565 381 445 363L444 362L445 361Q463 355 477 339T515 275L574 163Q578 153 568 153Q556 153 551 163L498 266Q465 331 447 343T368 355H301Q293 355 293 346V163Q293 153 283 153ZM554 710T411 710T167 609T66 365T167 121T411
20T655 121T756 365T655 609ZM562 0T411 0T153 107T46 365T153 623T411 730T669 623T776 365T669 107Z" />
<glyph unicode="&#xaf;" glyph-name="overscore" horiz-adv-x="452" d="M76 670Q66 670 66 680T76 690H376Q386 690 386 680T376 670H76Z" />
<glyph unicode="&#xb0;" glyph-name="degree" horiz-adv-x="382" d="M240 720T191 720T107 685T71 600T106 515T191 480T275 515T311 600T276 685ZM249 460T191 460T92 501T51 600T92 699T191 740T290 699T331 600T290 501Z" />
<glyph unicode="&#xb1;" glyph-name="plusminus" horiz-adv-x="752" d="M106 -40Q96 -40 96 -30T106 -20H646Q656 -20 656 -30T646 -40H106ZM106 350Q96 350 96 360T106 370H357Q366 370 366 379V640Q366 650 376 650T386 640V379Q386 370 395 370H646Q656 370
656 360T646 350H395Q386 350 386 341V80Q386 70 376 70T366 80V341Q366 350 357 350H106Z" />
<glyph unicode="&#xb2;" glyph-name="uni00B2" horiz-adv-x="370" d="M63 292Q53 292 53 302Q53 313 61 319Q194 437 240 499T286 616Q286 664 259 690T182 716Q124 716 72 687Q62 683 62 693Q62 704 73 710Q125 736 182 736Q240 736 273 704T306 616Q306 556
259 492T84 314Q83 314 83 313L84 312H301Q311 312 311 302T301 292H63Z" />
<glyph unicode="&#xb3;" glyph-name="uni00B3" horiz-adv-x="370" d="M66 710Q56 710 56 720T66 730H295Q305 730 305 720T298 703L145 550L144 549L145 548H163Q311 548 311 424Q311 286 161 286Q111 286 72 306Q62 311 62 324Q62 328 65 329T72 329Q111 306
161 306Q228 306 259 335T291 424Q291 470 266 499T163 528H125Q115 528 115 538T122 555L275 708V709V710H66Z" />
<glyph unicode="&#xb4;" glyph-name="acute" horiz-adv-x="199" d="M52 590Q48 590 47 593T47 600L152 740Q161 750 172 750Q176 750 177 747T177 740L72 600Q64 590 52 590Z" />
<glyph unicode="&#xb5;" glyph-name="mu" horiz-adv-x="537" d="M101 -220T91 -220T81 -210V510Q81 520 91 520T101 510V190Q101 92 134 51T246 10Q325 10 380 74T436 230V510Q436 520 446 520T456 510V10Q456 0 446 0T436 10V127Q436 128 435 128T434 127Q408
65 358 28T246 -10Q140 -10 105 61Q104 62 103 62T101 60V-210Q101 -220 91 -220Z" />
<glyph unicode="&#xb6;" glyph-name="paragraph" horiz-adv-x="582" d="M262 270Q170 274 106 340T41 500Q41 595 108 662T271 730H434Q457 730 474 713T491 673V-130Q491 -140 481 -140T471 -130V701Q471 710 463 710H300Q291 710 291 701V-130Q291 -140 281
-140T271 -130V261Q271 270 262 270Z" />
<glyph unicode="&#xb7;" glyph-name="middot" horiz-adv-x="222" d="M121 230T111 230T101 240V340Q101 350 111 350T121 340V240Q121 230 111 230Z" />
<glyph unicode="&#xb8;" glyph-name="cedilla" horiz-adv-x="412" d="M65 -201Q56 -198 56 -186Q56 -176 66 -180Q114 -200 166 -200Q311 -200 311 -105Q311 -55 271 -9Q269 -6 270 -3T276 0Q290 0 298 -11Q331 -56 331 -105Q331 -124 325 -141T303 -178T252 -208T166
-220Q114 -220 65 -201Z" />
<glyph unicode="&#xb9;" glyph-name="uni00B9" horiz-adv-x="370" d="M72 604Q69 602 66 603T62 609Q62 621 72 631L178 723Q187 730 196 730Q206 730 206 720V302Q206 292 196 292T186 302V703H185H184L72 604Z" />
<glyph unicode="&#xba;" glyph-name="ordmasculine" horiz-adv-x="622" d="M106 224Q96 224 96 234T106 244H516Q526 244 526 234T516 224H106ZM388 720T311 720T193 670T151 524T192 379T311 328T429 378T471 524T430 669ZM397 308T311 308T178 364T131 524T178
683T311 740T444 684T491 524T444 365Z" />
<glyph unicode="&#xbb;" glyph-name="guillemotright" horiz-adv-x="712" d="M111 521L354 307Q361 301 361 290T354 273L111 59Q108 57 105 58T101 63Q101 75 111 85L342 288Q343 289 343 290L342 292L111 495Q101 505 101 517Q101 521 104 522T111 521ZM391
85L622 288Q623 289 623 290L622 292L391 495Q381 505 381 517Q381 521 384 522T391 521L634 307Q641 301 641 290T634 273L391 59Q388 57 385 58T381 63Q381 75 391 85Z" />
<glyph unicode="&#xbc;" glyph-name="onequarter" horiz-adv-x="800" d="M669 139V402H668H667L471 132V131V130H660Q669 130 669 139ZM689 139Q689 130 698 130H759Q769 130 769 120T759 110H698Q689 110 689 101V10Q689 0 679 0T669 10V101Q669 110 660 110H455Q445
110 445 120T451 138L663 430Q669 438 679 438T689 428V139ZM154 0Q150 0 149 3T149 10L673 720Q681 730 693 730Q697 730 698 727T698 720L174 10Q166 0 154 0ZM55 604Q52 602 49 603T45 609Q45 621 55 631L161 723Q170 730 179 730Q189 730 189 720V302Q189 292
179 292T169 302V703H168H167L55 604Z" />
<glyph unicode="&#xbd;" glyph-name="onehalf" horiz-adv-x="800" d="M522 418Q574 444 631 444Q689 444 722 412T755 324Q755 264 708 200T533 22Q532 22 532 21L533 20H750Q760 20 760 10T750 0H512Q502 0 502 10Q502 21 510 27Q643 145 689 207T735 324Q735
372 708 398T631 424Q573 424 521 395Q511 391 511 401Q511 412 522 418ZM124 0Q120 0 119 3T119 10L643 720Q651 730 663 730Q667 730 668 727T668 720L144 10Q136 0 124 0ZM55 604Q52 602 49 603T45 609Q45 621 55 631L161 723Q170 730 179 730Q189 730 189 720V302Q189
292 179 292T169 302V703H168H167L55 604Z" />
<glyph unicode="&#xbe;" glyph-name="threequarters" horiz-adv-x="800" d="M669 139V402H668H667L471 132V131V130H660Q669 130 669 139ZM689 139Q689 130 698 130H759Q769 130 769 120T759 110H698Q689 110 689 101V10Q689 0 679 0T669 10V101Q669 110 660 110H455Q445
110 445 120T451 138L663 430Q669 438 679 438T689 428V139ZM159 0Q155 0 154 3T154 10L678 720Q686 730 698 730Q702 730 703 727T703 720L179 10Q171 0 159 0ZM58 710Q48 710 48 720T58 730H287Q297 730 297 720T290 703L137 550L136 549L137 548H155Q303 548
303 424Q303 286 153 286Q103 286 64 306Q54 311 54 324Q54 328 57 329T64 329Q103 306 153 306Q220 306 251 335T283 424Q283 470 258 499T155 528H117Q107 528 107 538T114 555L267 708V709V710H58Z" />
<glyph unicode="&#xbf;" glyph-name="questiondown" horiz-adv-x="602" d="M371 410T361 410T351 420V510Q351 520 361 520T371 510V420Q371 410 361 410ZM311 -230Q196 -230 134 -191T71 -80Q71 -31 93 8T140 66T208 113Q240 134 260 150T303 191T338 248T351
319Q351 330 361 330T371 320Q370 277 357 242T319 179T272 134T219 96Q187 75 170 63T132 29T101 -19T91 -80Q91 -142 148 -176T311 -210Q419 -210 521 -177Q525 -176 528 -178T531 -184Q531 -195 521 -198Q421 -230 311 -230Z" />
<glyph unicode="&#xc0;" glyph-name="Agrave" horiz-adv-x="635" d="M157 278Q155 270 162 270H474Q481 270 479 278L319 712Q319 713 318 713T317 712L157 278ZM44 0Q40 0 38 3T37 10L298 716Q303 730 317 730T338 716L599 10Q600 6 598 3T592 0Q581 0 578 10L493
242Q489 250 481 250H155Q146 250 143 242L58 10Q54 0 44 0ZM309 800L204 940Q201 943 203 946T209 950Q220 950 229 940L334 800Q336 797 334 794T329 790Q317 790 309 800Z" />
<glyph unicode="&#xc1;" glyph-name="Aacute" horiz-adv-x="635" d="M157 278Q155 270 162 270H474Q481 270 479 278L319 712Q319 713 318 713T317 712L157 278ZM44 0Q40 0 38 3T37 10L298 716Q303 730 317 730T338 716L599 10Q600 6 598 3T592 0Q581 0 578 10L493
242Q489 250 481 250H155Q146 250 143 242L58 10Q54 0 44 0ZM307 790Q303 790 301 793T302 800L407 940Q415 950 427 950Q430 950 432 947T432 940L327 800Q318 790 307 790Z" />
<glyph unicode="&#xc2;" glyph-name="Acircumflex" horiz-adv-x="635" d="M157 278Q155 270 162 270H474Q481 270 479 278L319 712Q319 713 318 713T317 712L157 278ZM44 0Q40 0 38 3T37 10L298 716Q303 730 317 730T338 716L599 10Q600 6 598 3T592 0Q581 0 578
10L493 242Q489 250 481 250H155Q146 250 143 242L58 10Q54 0 44 0ZM167 790Q163 790 161 793T162 800L293 939Q304 950 318 950T343 939L474 800Q476 797 474 794T469 790Q456 790 446 800L320 936H318H316L190 800Q180 790 167 790Z" />
<glyph unicode="&#xc3;" glyph-name="Atilde" horiz-adv-x="635" d="M157 278Q155 270 162 270H474Q481 270 479 278L319 712Q319 713 318 713T317 712L157 278ZM44 0Q40 0 38 3T37 10L298 716Q303 730 317 730T338 716L599 10Q600 6 598 3T592 0Q581 0 578 10L493
242Q489 250 481 250H155Q146 250 143 242L58 10Q54 0 44 0ZM173 810T163 810T153 821Q155 920 218 920Q258 920 323 874Q384 830 418 830Q460 830 463 900Q463 910 473 910Q476 910 479 908T483 901Q479 810 418 810Q377 810 311 857Q251 900 218 900Q211 900
206 899T193 891T179 866T173 820Q173 810 163 810Z" />
<glyph unicode="&#xc4;" glyph-name="Adieresis" horiz-adv-x="635" d="M157 278Q155 270 162 270H474Q481 270 479 278L319 712Q319 713 318 713T317 712L157 278ZM44 0Q40 0 38 3T37 10L298 716Q303 730 317 730T338 716L599 10Q600 6 598 3T592 0Q581 0 578
10L493 242Q489 250 481 250H155Q146 250 143 242L58 10Q54 0 44 0ZM428 810T418 810T408 820V920Q408 930 418 930T428 920V820Q428 810 418 810ZM228 810T218 810T208 820V920Q208 930 218 930T228 920V820Q228 810 218 810Z" />
<glyph unicode="&#xc5;" glyph-name="Aring" horiz-adv-x="635" d="M157 278Q155 270 162 270H474Q481 270 479 278L319 712Q319 713 318 713T317 712L157 278ZM44 0Q40 0 38 3T37 10L298 716Q303 730 317 730T338 716L599 10Q600 6 598 3T592 0Q581 0 578 10L493
242Q489 250 481 250H155Q146 250 143 242L58 10Q54 0 44 0ZM355 970T318 970T254 944T228 880T254 816T317 790T381 816T408 880T382 944ZM363 770T318 770T240 802T208 880T240 958T317 990T395 958T428 880T396 802Z" />
<glyph unicode="&#xc6;" glyph-name="AE" horiz-adv-x="774" d="M161 278Q159 270 166 270H374Q383 270 383 278V701Q383 710 374 710H334Q326 710 323 702L161 278ZM44 0Q40 0 38 3T37 10L293 677Q301 701 322 715T370 730H683Q693 730 693 720T683 710H412Q403
710 403 701V419Q403 410 412 410H663Q673 410 673 400T663 390H412Q403 390 403 382V29Q403 20 412 20H683Q693 20 693 10T683 0H440Q416 0 400 17T383 57V241Q383 250 374 250H158Q150 250 147 242L58 10Q54 0 44 0Z" />
<glyph unicode="&#xc7;" glyph-name="Ccedilla" horiz-adv-x="592" d="M331 -10Q203 -10 125 89T46 365T121 641T322 740Q412 740 491 709Q501 706 501 694Q501 690 498 688T491 687Q411 720 322 720Q202 720 134 626T66 365Q66 201 137 106T331 10Q416 10 496
43Q500 44 503 42T506 36Q506 26 495 21Q441 0 393 -6Q385 -6 390 -14Q421 -59 421 -105Q421 -124 415 -141T393 -178T342 -208T256 -220Q204 -220 155 -201Q146 -198 146 -186Q146 -176 156 -180Q204 -200 256 -200Q401 -200 401 -105Q401 -57 367 -16Q362 -10
352 -10H331Z" />
<glyph unicode="&#xc8;" glyph-name="Egrave" horiz-adv-x="572" d="M317 800L212 940Q210 943 211 946T217 950Q229 950 237 940L342 800Q344 797 343 794T337 790Q325 790 317 800ZM148 0Q125 0 108 17T91 57V673Q91 696 108 713T148 730H481Q491 730 491 720T481
710H120Q111 710 111 702V419Q111 410 120 410H461Q471 410 471 400T461 390H120Q111 390 111 382V29Q111 20 120 20H481Q491 20 491 10T481 0H148Z" />
<glyph unicode="&#xc9;" glyph-name="Eacute" horiz-adv-x="572" d="M255 790Q251 790 250 793T250 800L355 940Q363 950 375 950Q379 950 380 947T380 940L275 800Q267 790 255 790ZM148 0Q125 0 108 17T91 57V673Q91 696 108 713T148 730H481Q491 730 491 720T481
710H120Q111 710 111 702V419Q111 410 120 410H461Q471 410 471 400T461 390H120Q111 390 111 382V29Q111 20 120 20H481Q491 20 491 10T481 0H148Z" />
<glyph unicode="&#xca;" glyph-name="Ecircumflex" horiz-adv-x="572" d="M145 790Q141 790 139 793T140 800L271 939Q282 950 296 950T321 939L452 800Q454 797 453 794T447 790Q434 790 424 800L298 936H296H294L168 800Q158 790 145 790ZM148 0Q125 0 108 17T91
57V673Q91 696 108 713T148 730H481Q491 730 491 720T481 710H120Q111 710 111 702V419Q111 410 120 410H461Q471 410 471 400T461 390H120Q111 390 111 382V29Q111 20 120 20H481Q491 20 491 10T481 0H148Z" />
<glyph unicode="&#xcb;" glyph-name="Edieresis" horiz-adv-x="572" d="M406 810T396 810T386 820V920Q386 930 396 930T406 920V820Q406 810 396 810ZM206 810T196 810T186 820V920Q186 930 196 930T206 920V820Q206 810 196 810ZM148 0Q125 0 108 17T91 57V673Q91
696 108 713T148 730H481Q491 730 491 720T481 710H120Q111 710 111 702V419Q111 410 120 410H461Q471 410 471 400T461 390H120Q111 390 111 382V29Q111 20 120 20H481Q491 20 491 10T481 0H148Z" />
<glyph unicode="&#xcc;" glyph-name="Igrave" horiz-adv-x="276" d="M113 800L7 940Q5 943 6 946T12 950Q24 950 32 940L137 800Q140 797 139 794T133 790Q122 790 113 800ZM125 720Q125 730 135 730T145 720V10Q145 0 135 0T125 10V720Z" />
<glyph unicode="&#xcd;" glyph-name="Iacute" horiz-adv-x="276" d="M143 790Q139 790 138 793T139 800L244 940Q252 950 264 950Q268 950 269 947T269 940L163 800Q155 790 143 790ZM151 0T141 0T131 10V720Q131 730 141 730T151 720V10Q151 0 141 0Z" />
<glyph unicode="&#xce;" glyph-name="Icircumflex" horiz-adv-x="267" d="M-17 790Q-21 790 -23 793T-22 800L109 939Q120 950 134 950T159 939L290 800Q292 797 290 794T285 790Q272 790 262 800L136 936H134H132L6 800Q-4 790 -17 790ZM124 720Q124 730 134
730T144 720V10Q144 0 134 0T124 10V720Z" />
<glyph unicode="&#xcf;" glyph-name="Idieresis" horiz-adv-x="282" d="M251 810T241 810T231 820V920Q231 930 241 930T251 920V820Q251 810 241 810ZM51 810T41 810T31 820V920Q31 930 41 930T51 920V820Q51 810 41 810ZM151 0T141 0T131 10V720Q131 730 141
730T151 720V10Q151 0 141 0Z" />
<glyph unicode="&#xd0;" glyph-name="Eth" horiz-adv-x="712" d="M186 366V32Q186 24 194 22Q251 10 316 10Q485 10 565 99T646 375Q646 551 566 635T316 720Q251 720 194 708Q186 706 186 698V404Q186 395 195 395H391Q401 395 401 385T391 375H195Q186 375 186
366ZM51 375Q41 375 41 385T51 395H157Q166 395 166 404V666Q166 691 181 710T221 733Q275 740 316 740Q666 740 666 375Q666 -10 316 -10Q268 -10 223 -4Q198 0 182 19T166 64V366Q166 375 157 375H51Z" />
<glyph unicode="&#xd1;" glyph-name="Ntilde" horiz-adv-x="672" d="M111 0T101 0T91 10V714Q91 730 107 730Q124 730 132 716L558 22Q558 21 560 21Q561 21 561 22V720Q561 730 571 730T581 720V16Q581 0 565 0Q548 0 540 14L114 708Q114 709 112 709Q111 709
111 708V10Q111 0 101 0ZM191 810T181 810T171 821Q174 920 236 920Q276 920 341 874Q403 830 436 830Q478 830 481 900Q481 910 491 910T501 901Q497 810 436 810Q395 810 329 857Q270 900 236 900Q193 900 191 820Q191 810 181 810Z" />
<glyph unicode="&#xd2;" glyph-name="Ograve" horiz-adv-x="692" d="M482 720T346 720T138 629T66 365T138 102T346 10T554 101T626 365T554 628ZM489 -10T346 -10T125 88T46 365T124 642T346 740T567 642T646 365T568 88ZM337 800L232 940Q230 943 231 946T237
950Q249 950 257 940L362 800Q364 797 363 794T357 790Q345 790 337 800Z" />
<glyph unicode="&#xd3;" glyph-name="Oacute" horiz-adv-x="692" d="M482 720T346 720T138 629T66 365T138 102T346 10T554 101T626 365T554 628ZM489 -10T346 -10T125 88T46 365T124 642T346 740T567 642T646 365T568 88ZM335 790Q331 790 330 793T330 800L435
940Q443 950 455 950Q459 950 460 947T460 940L355 800Q347 790 335 790Z" />
<glyph unicode="&#xd4;" glyph-name="Ocircumflex" horiz-adv-x="692" d="M482 720T346 720T138 629T66 365T138 102T346 10T554 101T626 365T554 628ZM489 -10T346 -10T125 88T46 365T124 642T346 740T567 642T646 365T568 88ZM195 790Q191 790 189 793T190 800L321
939Q332 950 346 950T371 939L502 800Q504 797 503 794T497 790Q484 790 474 800L348 936H346H344L218 800Q208 790 195 790Z" />
<glyph unicode="&#xd5;" glyph-name="Otilde" horiz-adv-x="692" d="M482 720T346 720T138 629T66 365T138 102T346 10T554 101T626 365T554 628ZM489 -10T346 -10T125 88T46 365T124 642T346 740T567 642T646 365T568 88ZM201 810T191 810T181 821Q184 920 246
920Q286 920 351 874Q413 830 446 830Q488 830 491 900Q491 910 501 910T511 901Q507 810 446 810Q405 810 339 857Q280 900 246 900Q203 900 201 820Q201 810 191 810Z" />
<glyph unicode="&#xd6;" glyph-name="Odieresis" horiz-adv-x="692" d="M482 720T346 720T138 629T66 365T138 102T346 10T554 101T626 365T554 628ZM489 -10T346 -10T125 88T46 365T124 642T346 740T567 642T646 365T568 88ZM456 810T446 810T436 820V920Q436
930 446 930T456 920V820Q456 810 446 810ZM256 810T246 810T236 820V920Q236 930 246 930T256 920V820Q256 810 246 810Z" />
<glyph unicode="&#xd7;" glyph-name="multiply" horiz-adv-x="574" d="M54 71L267 284Q273 290 267 296L54 509Q47 516 54 523T68 523L281 310Q287 304 293 310L506 523Q513 530 520 523T520 509L307 296Q301 290 307 284L520 71Q527 64 520 57T506 57L293 270Q287
276 281 270L68 57Q61 50 54 57T54 71Z" />
<glyph unicode="&#xd8;" glyph-name="Oslash" horiz-adv-x="702" d="M351 720Q215 720 143 629T71 365Q71 177 158 85Q164 79 168 86L519 657Q523 665 517 670Q450 720 351 720ZM534 644L183 73Q179 65 185 60Q252 10 351 10Q487 10 559 101T631 365Q631 553 544
645Q538 651 534 644ZM149 55Q153 60 147 68Q51 166 51 365Q51 544 129 642T351 740Q455 740 526 687Q534 681 538 689L567 737Q572 745 581 740Q589 735 584 726L553 675Q548 669 555 662Q651 564 651 365Q651 186 573 88T351 -10Q247 -10 176 43Q168 49 164 41L135
-7Q130 -15 121 -10Q113 -5 118 4L149 55Z" />
<glyph unicode="&#xd9;" glyph-name="Ugrave" horiz-adv-x="642" d="M435 -10T321 -10T144 54T81 240V720Q81 730 91 730T101 720V240Q101 127 157 69T321 10T485 68T541 240V720Q541 730 551 730T561 720V240Q561 118 498 54ZM342 800L237 940Q235 943 236 946T242
950Q254 950 262 940L367 800Q369 797 368 794T362 790Q350 790 342 800Z" />
<glyph unicode="&#xda;" glyph-name="Uacute" horiz-adv-x="642" d="M435 -10T321 -10T144 54T81 240V720Q81 730 91 730T101 720V240Q101 127 157 69T321 10T485 68T541 240V720Q541 730 551 730T561 720V240Q561 118 498 54ZM280 790Q276 790 275 793T275 800L380
940Q388 950 400 950Q404 950 405 947T405 940L300 800Q292 790 280 790Z" />
<glyph unicode="&#xdb;" glyph-name="Ucircumflex" horiz-adv-x="642" d="M435 -10T321 -10T144 54T81 240V720Q81 730 91 730T101 720V240Q101 127 157 69T321 10T485 68T541 240V720Q541 730 551 730T561 720V240Q561 118 498 54ZM170 790Q166 790 164 793T165
800L296 939Q307 950 321 950T346 939L477 800Q479 797 478 794T472 790Q459 790 449 800L323 936H321H319L193 800Q183 790 170 790Z" />
<glyph unicode="&#xdc;" glyph-name="Udieresis" horiz-adv-x="642" d="M435 -10T321 -10T144 54T81 240V720Q81 730 91 730T101 720V240Q101 127 157 69T321 10T485 68T541 240V720Q541 730 551 730T561 720V240Q561 118 498 54ZM431 810T421 810T411 820V920Q411
930 421 930T431 920V820Q431 810 421 810ZM231 810T221 810T211 820V920Q211 930 221 930T231 920V820Q231 810 221 810Z" />
<glyph unicode="&#xdd;" glyph-name="Yacute" horiz-adv-x="610" d="M290 334L37 720Q35 723 36 726T42 730Q55 730 61 720L303 348H305H307L549 720Q556 730 568 730Q572 730 573 727T573 720L320 334Q315 326 315 318V10Q315 0 305 0T295 10V318Q295 326 290
334ZM264 790Q260 790 259 793T259 800L364 940Q373 950 384 950Q388 950 389 947T389 940L284 800Q276 790 264 790Z" />
<glyph unicode="&#xde;" glyph-name="Thorn" horiz-adv-x="582" d="M111 568V213Q111 205 120 203Q192 195 261 195Q382 195 446 246T511 395Q511 491 448 540T261 590Q188 590 120 578Q111 576 111 568ZM111 0T101 0T91 10V720Q91 730 101 730T111 720V606Q111
603 113 600T119 598Q191 610 261 610Q392 610 461 555T531 395Q531 290 461 233T261 175Q192 175 120 183Q111 185 111 176V10Q111 0 101 0Z" />
<glyph unicode="&#xdf;" glyph-name="germandbls" horiz-adv-x="572" d="M106 0T96 0T86 10V555Q86 668 130 714T286 760Q476 760 476 640Q476 604 456 566T412 503T367 454T347 420T375 382T436 323T498 247T526 160Q526 78 478 34T341 -10Q276 -10 194 11Q184
14 184 24T194 32Q274 10 341 10Q422 10 464 48T506 160Q506 198 478 241T416 315T354 375T326 420Q326 434 346 459T391 509T435 570T456 640Q456 659 451 674T429 705T376 731T286 740Q184 740 145 700T106 555V10Q106 0 96 0Z" />
<glyph unicode="&#xe0;" glyph-name="agrave" horiz-adv-x="512" d="M416 210V291Q416 300 407 300H346Q76 300 76 140Q76 79 110 45T206 10Q297 10 356 66T416 210ZM407 320Q416 320 416 329V370Q416 447 383 478T266 510Q171 510 91 477Q87 476 84 478T81 484Q81
495 92 499Q172 530 266 530Q358 530 397 493T436 370V10Q436 0 426 0T416 10V115Q416 116 415 116Q413 116 413 114Q386 57 332 24T206 -10Q136 -10 96 30T56 140Q56 167 63 190T89 238T140 280T224 309T346 320H407ZM257 600L152 740Q150 743 151 746T157 750Q169
750 177 740L282 600Q284 597 283 594T277 590Q265 590 257 600Z" />
<glyph unicode="&#xe1;" glyph-name="aacute" horiz-adv-x="512" d="M416 210V291Q416 300 407 300H346Q76 300 76 140Q76 79 110 45T206 10Q297 10 356 66T416 210ZM407 320Q416 320 416 329V370Q416 447 383 478T266 510Q171 510 91 477Q87 476 84 478T81 484Q81
495 92 499Q172 530 266 530Q358 530 397 493T436 370V10Q436 0 426 0T416 10V115Q416 116 415 116Q413 116 413 114Q386 57 332 24T206 -10Q136 -10 96 30T56 140Q56 167 63 190T89 238T140 280T224 309T346 320H407ZM255 590Q251 590 250 593T250 600L355 740Q363
750 375 750Q379 750 380 747T380 740L275 600Q267 590 255 590Z" />
<glyph unicode="&#xe2;" glyph-name="acircumflex" horiz-adv-x="512" d="M416 210V291Q416 300 407 300H346Q76 300 76 140Q76 79 110 45T206 10Q297 10 356 66T416 210ZM407 320Q416 320 416 329V370Q416 447 383 478T266 510Q171 510 91 477Q87 476 84 478T81
484Q81 495 92 499Q172 530 266 530Q358 530 397 493T436 370V10Q436 0 426 0T416 10V115Q416 116 415 116Q413 116 413 114Q386 57 332 24T206 -10Q136 -10 96 30T56 140Q56 167 63 190T89 238T140 280T224 309T346 320H407ZM115 590Q111 590 109 593T110 600L241
739Q252 750 266 750T291 739L422 600Q424 597 423 594T417 590Q404 590 394 600L268 736H266H264L138 600Q128 590 115 590Z" />
<glyph unicode="&#xe3;" glyph-name="atilde" horiz-adv-x="512" d="M416 210V291Q416 300 407 300H346Q76 300 76 140Q76 79 110 45T206 10Q297 10 356 66T416 210ZM407 320Q416 320 416 329V370Q416 447 383 478T266 510Q171 510 91 477Q87 476 84 478T81 484Q81
495 92 499Q172 530 266 530Q358 530 397 493T436 370V10Q436 0 426 0T416 10V115Q416 116 415 116Q413 116 413 114Q386 57 332 24T206 -10Q136 -10 96 30T56 140Q56 167 63 190T89 238T140 280T224 309T346 320H407ZM121 600T111 600T101 611Q104 710 166 710Q206
710 271 664Q333 620 366 620Q408 620 411 690Q411 700 421 700T431 691Q427 600 366 600Q325 600 259 647Q200 690 166 690Q123 690 121 610Q121 600 111 600Z" />
<glyph unicode="&#xe4;" glyph-name="adieresis" horiz-adv-x="512" d="M416 210V291Q416 300 407 300H346Q76 300 76 140Q76 79 110 45T206 10Q297 10 356 66T416 210ZM407 320Q416 320 416 329V370Q416 447 383 478T266 510Q171 510 91 477Q87 476 84 478T81
484Q81 495 92 499Q172 530 266 530Q358 530 397 493T436 370V10Q436 0 426 0T416 10V115Q416 116 415 116Q413 116 413 114Q386 57 332 24T206 -10Q136 -10 96 30T56 140Q56 167 63 190T89 238T140 280T224 309T346 320H407ZM376 610T366 610T356 620V720Q356
730 366 730T376 720V620Q376 610 366 610ZM176 610T166 610T156 620V720Q156 730 166 730T176 720V620Q176 610 166 610Z" />
<glyph unicode="&#xe5;" glyph-name="aring" horiz-adv-x="512" d="M416 210V291Q416 300 407 300H346Q76 300 76 140Q76 79 110 45T206 10Q297 10 356 66T416 210ZM407 320Q416 320 416 329V370Q416 447 383 478T266 510Q171 510 91 477Q87 476 84 478T81 484Q81
495 92 499Q172 530 266 530Q358 530 397 493T436 370V10Q436 0 426 0T416 10V115Q416 116 415 116Q413 116 413 114Q386 57 332 24T206 -10Q136 -10 96 30T56 140Q56 167 63 190T89 238T140 280T224 309T346 320H407ZM304 760T266 760T202 734T176 670T202 606T266
580T330 606T356 670T330 734ZM312 560T266 560T188 592T156 670T188 748T266 780T344 748T376 670T344 592Z" />
<glyph unicode="&#xe6;" glyph-name="ae" horiz-adv-x="865" d="M621 510Q539 510 491 453T437 284Q437 275 445 275H787Q795 275 795 284Q787 510 621 510ZM416 210V291Q416 300 407 300H346Q76 300 76 140Q76 79 110 45T206 10Q297 10 356 66T416 210ZM407 320Q416
320 416 329V370Q416 447 383 478T266 510Q171 510 91 477Q87 476 84 478T81 484Q81 495 92 499Q172 530 266 530Q349 530 388 501T435 402Q435 400 436 400T438 401Q486 530 621 530Q706 530 755 474T814 311Q816 288 800 272T759 255H445Q436 255 436 247Q439
131 490 71T626 10Q703 10 772 38Q776 39 778 37T781 31Q781 19 772 16Q704 -10 626 -10Q553 -10 503 30T431 144Q430 146 429 146T426 144Q406 74 347 32T206 -10Q136 -10 96 30T56 140Q56 167 63 190T89 238T140 280T224 309T346 320H407Z" />
<glyph unicode="&#xe7;" glyph-name="ccedilla" horiz-adv-x="492" d="M281 -10Q167 -10 107 58T46 260Q46 393 105 461T271 530Q340 530 400 509Q411 505 411 494Q411 490 408 488T400 488Q338 510 271 510Q211 510 169 488T105 427T75 348T66 260Q66 10 281
10Q346 10 406 32Q416 36 416 26Q416 14 406 11Q374 -1 334 -6Q326 -8 331 -15Q361 -58 361 -105Q361 -124 355 -141T333 -178T282 -208T196 -220Q144 -220 95 -201Q86 -198 86 -186Q86 -176 96 -180Q144 -200 196 -200Q341 -200 341 -105Q341 -60 307 -17Q302
-10 294 -10H281Z" />
<glyph unicode="&#xe8;" glyph-name="egrave" horiz-adv-x="515" d="M266 510Q79 510 67 289Q67 280 76 280H436Q445 280 445 289Q438 510 266 510ZM281 -10Q46 -10 46 260Q46 324 59 373T94 452T146 499T204 523T266 530Q447 530 464 316Q466 293 450 277T409
260H75Q66 260 66 252Q69 10 281 10Q358 10 427 38Q431 39 433 37T436 31Q436 19 427 16Q359 -10 281 -10ZM282 600L177 740Q175 743 176 746T182 750Q194 750 202 740L307 600Q309 597 308 594T302 590Q290 590 282 600Z" />
<glyph unicode="&#xe9;" glyph-name="eacute" horiz-adv-x="515" d="M266 510Q79 510 67 289Q67 280 76 280H436Q445 280 445 289Q438 510 266 510ZM281 -10Q46 -10 46 260Q46 324 59 373T94 452T146 499T204 523T266 530Q447 530 464 316Q466 293 450 277T409
260H75Q66 260 66 252Q69 10 281 10Q358 10 427 38Q431 39 433 37T436 31Q436 19 427 16Q359 -10 281 -10ZM220 590Q216 590 215 593T215 600L320 740Q328 750 340 750Q344 750 345 747T345 740L240 600Q232 590 220 590Z" />
<glyph unicode="&#xea;" glyph-name="ecircumflex" horiz-adv-x="515" d="M266 510Q79 510 67 289Q67 280 76 280H436Q445 280 445 289Q438 510 266 510ZM281 -10Q46 -10 46 260Q46 324 59 373T94 452T146 499T204 523T266 530Q447 530 464 316Q466 293 450 277T409
260H75Q66 260 66 252Q69 10 281 10Q358 10 427 38Q431 39 433 37T436 31Q436 19 427 16Q359 -10 281 -10ZM110 590Q106 590 104 593T105 600L236 739Q247 750 261 750T286 739L417 600Q419 597 418 594T412 590Q399 590 389 600L263 736H261H259L133 600Q123 590
110 590Z" />
<glyph unicode="&#xeb;" glyph-name="edieresis" horiz-adv-x="515" d="M266 510Q79 510 67 289Q67 280 76 280H436Q445 280 445 289Q438 510 266 510ZM281 -10Q46 -10 46 260Q46 324 59 373T94 452T146 499T204 523T266 530Q447 530 464 316Q466 293 450 277T409
260H75Q66 260 66 252Q69 10 281 10Q358 10 427 38Q431 39 433 37T436 31Q436 19 427 16Q359 -10 281 -10ZM371 610T361 610T351 620V720Q351 730 361 730T371 720V620Q371 610 361 610ZM171 610T161 610T151 620V720Q151 730 161 730T171 720V620Q171 610 161
610Z" />
<glyph unicode="&#xec;" glyph-name="igrave" horiz-adv-x="276" d="M113 600L7 740Q5 743 6 746T12 750Q24 750 32 740L137 600Q140 597 139 594T133 590Q122 590 113 600ZM125 510Q125 520 135 520T145 510V10Q145 0 135 0T125 10V510Z" />
<glyph unicode="&#xed;" glyph-name="iacute" horiz-adv-x="276" d="M143 590Q139 590 138 593T139 600L244 740Q252 750 264 750Q268 750 269 747T269 740L163 600Q155 590 143 590ZM151 0T141 0T131 10V510Q131 520 141 520T151 510V10Q151 0 141 0Z" />
<glyph unicode="&#xee;" glyph-name="icircumflex" horiz-adv-x="267" d="M-17 590Q-21 590 -23 593T-22 600L109 739Q120 750 134 750T159 739L290 600Q292 597 290 594T285 590Q272 590 262 600L136 736H134H132L6 600Q-4 590 -17 590ZM124 510Q124 520 134
520T144 510V10Q144 0 134 0T124 10V510Z" />
<glyph unicode="&#xef;" glyph-name="idieresis" horiz-adv-x="282" d="M251 610T241 610T231 620V720Q231 730 241 730T251 720V620Q251 610 241 610ZM51 610T41 610T31 620V720Q31 730 41 730T51 720V620Q51 610 41 610ZM151 0T141 0T131 10V510Q131 520 141
520T151 510V10Q151 0 141 0Z" />
<glyph unicode="&#xf0;" glyph-name="eth" horiz-adv-x="542" d="M363 510T271 510T125 443T71 260Q71 147 129 79T271 10Q365 10 418 76T471 260Q471 375 417 442ZM271 -10Q179 -10 115 63T51 260T111 456T271 530Q388 530 448 432Q448 431 450 431Q451 431 451
433Q417 560 329 637Q323 643 314 640L149 565Q140 561 136 570T141 583L296 654Q302 658 296 662Q233 705 156 718Q146 720 146 730Q146 734 148 737T155 739Q246 724 317 672Q324 667 332 670L453 725Q462 729 466 720T461 707L349 656Q342 652 348 646Q491 514
491 260Q491 133 433 62T271 -10Z" />
<glyph unicode="&#xf1;" glyph-name="ntilde" horiz-adv-x="537" d="M101 0T91 0T81 10V510Q81 520 91 520T101 510V416Q101 415 102 415Q104 415 104 416Q133 463 186 496T291 530Q381 530 421 480T461 310V10Q461 0 451 0T441 10V310Q441 428 405 469T291 510Q225
510 163 457T101 350V10Q101 0 91 0ZM121 600T111 600T101 611Q104 710 166 710Q206 710 271 664Q333 620 366 620Q408 620 411 690Q411 700 421 700T431 691Q427 600 366 600Q325 600 259 647Q200 690 166 690Q123 690 121 610Q121 600 111 600Z" />
<glyph unicode="&#xf2;" glyph-name="ograve" horiz-adv-x="542" d="M370 510T271 510T119 446T66 260T119 75T271 10T423 74T476 260T423 445ZM378 -10T271 -10T105 60T46 260T105 459T271 530T437 460T496 260T437 61ZM262 600L157 740Q155 743 156 746T162
750Q174 750 182 740L287 600Q289 597 288 594T282 590Q270 590 262 600Z" />
<glyph unicode="&#xf3;" glyph-name="oacute" horiz-adv-x="542" d="M370 510T271 510T119 446T66 260T119 75T271 10T423 74T476 260T423 445ZM378 -10T271 -10T105 60T46 260T105 459T271 530T437 460T496 260T437 61ZM260 590Q256 590 255 593T255 600L360
740Q368 750 380 750Q384 750 385 747T385 740L280 600Q272 590 260 590Z" />
<glyph unicode="&#xf4;" glyph-name="ocircumflex" horiz-adv-x="542" d="M370 510T271 510T119 446T66 260T119 75T271 10T423 74T476 260T423 445ZM378 -10T271 -10T105 60T46 260T105 459T271 530T437 460T496 260T437 61ZM120 590Q116 590 114 593T115 600L246
739Q257 750 271 750T296 739L427 600Q429 597 428 594T422 590Q409 590 399 600L273 736H271H269L143 600Q133 590 120 590Z" />
<glyph unicode="&#xf5;" glyph-name="otilde" horiz-adv-x="542" d="M370 510T271 510T119 446T66 260T119 75T271 10T423 74T476 260T423 445ZM378 -10T271 -10T105 60T46 260T105 459T271 530T437 460T496 260T437 61ZM126 600T116 600T106 611Q109 710 171
710Q211 710 276 664Q338 620 371 620Q413 620 416 690Q416 700 426 700T436 691Q432 600 371 600Q330 600 264 647Q205 690 171 690Q128 690 126 610Q126 600 116 600Z" />
<glyph unicode="&#xf6;" glyph-name="odieresis" horiz-adv-x="542" d="M370 510T271 510T119 446T66 260T119 75T271 10T423 74T476 260T423 445ZM378 -10T271 -10T105 60T46 260T105 459T271 530T437 460T496 260T437 61ZM381 610T371 610T361 620V720Q361 730
371 730T381 720V620Q381 610 371 610ZM181 610T171 610T161 620V720Q161 730 171 730T181 720V620Q181 610 171 610Z" />
<glyph unicode="&#xf7;" glyph-name="divide" horiz-adv-x="732" d="M376 10Q376 0 366 0T356 10V100Q356 110 366 110T376 100V10ZM376 470T366 470T356 480V570Q356 580 366 580T376 570V480Q376 470 366 470ZM96 280Q86 280 86 290T96 300H636Q646 300 646
290T636 280H96Z" />
<glyph unicode="&#xf8;" glyph-name="oslash" horiz-adv-x="552" d="M276 510Q177 510 124 446T71 260T124 75Q130 69 134 76L403 458Q409 466 402 471Q352 510 276 510ZM418 444L149 62Q143 54 150 49Q200 10 276 10Q375 10 428 74T481 260T428 445Q422 451 418
444ZM113 45Q118 51 112 59Q51 131 51 260T110 459T276 530Q359 530 413 488Q420 483 425 489L452 528Q457 536 466 530Q474 525 468 516L439 475Q434 469 440 461Q501 389 501 260T442 61T276 -10Q193 -10 139 32Q132 37 127 31L100 -8Q95 -16 86 -10Q78 -5 84
4L113 45Z" />
<glyph unicode="&#xf9;" glyph-name="ugrave" horiz-adv-x="532" d="M241 -10Q156 -10 116 36T76 190V510Q76 520 86 520T96 510V190Q96 86 132 48T241 10Q307 10 369 63T431 170V510Q431 520 441 520T451 510V10Q451 0 441 0T431 10V104Q431 105 430 105Q428
105 428 104Q399 57 346 24T241 -10ZM292 600L187 740Q185 743 186 746T192 750Q204 750 212 740L317 600Q319 597 318 594T312 590Q300 590 292 600Z" />
<glyph unicode="&#xfa;" glyph-name="uacute" horiz-adv-x="532" d="M241 -10Q156 -10 116 36T76 190V510Q76 520 86 520T96 510V190Q96 86 132 48T241 10Q307 10 369 63T431 170V510Q431 520 441 520T451 510V10Q451 0 441 0T431 10V104Q431 105 430 105Q428
105 428 104Q399 57 346 24T241 -10ZM230 590Q226 590 225 593T225 600L330 740Q338 750 350 750Q354 750 355 747T355 740L250 600Q242 590 230 590Z" />
<glyph unicode="&#xfb;" glyph-name="ucircumflex" horiz-adv-x="532" d="M241 -10Q156 -10 116 36T76 190V510Q76 520 86 520T96 510V190Q96 86 132 48T241 10Q307 10 369 63T431 170V510Q431 520 441 520T451 510V10Q451 0 441 0T431 10V104Q431 105 430 105Q428
105 428 104Q399 57 346 24T241 -10ZM120 590Q116 590 114 593T115 600L246 739Q257 750 271 750T296 739L427 600Q429 597 428 594T422 590Q409 590 399 600L273 736H271H269L143 600Q133 590 120 590Z" />
<glyph unicode="&#xfc;" glyph-name="udieresis" horiz-adv-x="532" d="M241 -10Q156 -10 116 36T76 190V510Q76 520 86 520T96 510V190Q96 86 132 48T241 10Q307 10 369 63T431 170V510Q431 520 441 520T451 510V10Q451 0 441 0T431 10V104Q431 105 430 105Q428
105 428 104Q399 57 346 24T241 -10ZM381 610T371 610T361 620V720Q361 730 371 730T381 720V620Q381 610 371 610ZM181 610T171 610T161 620V720Q161 730 171 730T181 720V620Q181 610 171 610Z" />
<glyph unicode="&#xfd;" glyph-name="yacute" horiz-adv-x="525" d="M240 20L42 510Q40 514 42 517T49 520Q60 520 64 510L253 38Q253 37 254 37T255 38L462 510Q467 520 477 520Q480 520 482 517T484 510L167 -210Q162 -220 152 -220Q148 -220 146 -217T145 -210L239
4Q242 13 240 20ZM217 590Q213 590 211 593T212 600L317 740Q325 750 337 750Q340 750 342 747T342 740L237 600Q228 590 217 590Z" />
<glyph unicode="&#xfe;" glyph-name="thorn" horiz-adv-x="552" d="M101 355V165Q101 103 158 57T291 10Q383 10 432 74T481 260Q481 383 433 446T291 510Q215 510 158 464T101 355ZM101 -220T91 -220T81 -210V740Q81 750 91 750T101 740V428Q101 427 102 427Q104
427 104 428Q131 473 181 501T291 530Q392 530 446 460T501 260Q501 131 446 61T291 -10Q232 -10 182 18T104 92Q104 93 102 93Q101 93 101 92V-210Q101 -220 91 -220Z" />
<glyph unicode="&#xff;" glyph-name="ydieresis" horiz-adv-x="525" d="M240 20L42 510Q40 514 42 517T49 520Q60 520 64 510L253 38Q253 37 254 37T255 38L462 510Q467 520 477 520Q480 520 482 517T484 510L167 -210Q162 -220 152 -220Q148 -220 146 -217T145
-210L239 4Q242 13 240 20ZM368 610T358 610T348 620V720Q348 730 358 730T368 720V620Q368 610 358 610ZM168 610T158 610T148 620V720Q148 730 158 730T168 720V620Q168 610 158 610Z" />
<glyph unicode="&#x2013;" glyph-name="endash" horiz-adv-x="472" d="M464 300Q474 300 474 290T464 280H8Q-2 280 -2 290T8 300H464Z" />
<glyph unicode="&#x2014;" glyph-name="emdash" horiz-adv-x="946" d="M938 300Q948 300 948 290T938 280H8Q-2 280 -2 290T8 300H938Z" />
<glyph unicode="&#x2018;" glyph-name="quoteleft" horiz-adv-x="222" d="M59 550Q55 550 53 553T52 560L125 760Q128 770 139 770Q142 770 144 767T146 760L74 560Q70 550 59 550Z" />
<glyph unicode="&#x2019;" glyph-name="quoteright" horiz-adv-x="222" d="M84 550Q80 550 78 553T77 560L150 760Q153 770 164 770Q167 770 169 767T171 760L99 560Q95 550 84 550Z" />
<glyph unicode="&#x201a;" glyph-name="quotesinglbase" horiz-adv-x="237" d="M74 -110Q70 -110 68 -107T67 -100L140 100Q143 110 154 110Q157 110 159 107T161 100L88 -100Q84 -110 74 -110Z" />
<glyph unicode="&#x201c;" glyph-name="quotedblleft" horiz-adv-x="370" d="M212 550Q208 550 206 553T205 560L278 760Q281 770 292 770Q295 770 297 767T299 760L227 560Q223 550 212 550ZM54 550Q50 550 48 553T47 560L119 760Q122 770 134 770Q137 770 139
767T141 760L68 560Q64 550 54 550Z" />
<glyph unicode="&#x201d;" glyph-name="quotedblright" horiz-adv-x="370" d="M237 550Q233 550 231 553T230 560L303 760Q306 770 317 770Q320 770 322 767T324 760L252 560Q248 550 237 550ZM79 550Q75 550 73 553T72 560L144 760Q147 770 159 770Q162 770 164
767T166 760L93 560Q89 550 79 550Z" />
<glyph unicode="&#x201e;" glyph-name="quotedblbase" horiz-adv-x="385" d="M227 -110Q223 -110 221 -107T220 -100L293 100Q296 110 307 110Q310 110 312 107T314 100L242 -100Q238 -110 227 -110ZM69 -110Q65 -110 63 -107T62 -100L134 100Q137 110 149 110Q152
110 154 107T156 100L83 -100Q79 -110 69 -110Z" />
<glyph unicode="&#x2022;" glyph-name="bullet" horiz-adv-x="402" d="M131 365Q131 394 151 414T201 435T250 415T271 365T251 316T201 295T152 315T131 365V365Z" />
<glyph unicode="&#x2039;" glyph-name="guilsinglleft" horiz-adv-x="321" d="M203 100L87 246Q71 266 71 290T87 334L203 480Q211 490 224 490Q228 490 229 487T229 480L82 297Q76 290 82 283L229 100Q231 97 230 94T224 90Q211 90 203 100Z" />
<glyph unicode="&#x203a;" glyph-name="guilsinglright" horiz-adv-x="321" d="M92 100L239 283Q244 290 239 297L92 480Q90 483 91 486T97 490Q110 490 118 480L234 334Q250 314 250 290T234 246L118 100Q110 90 97 90Q93 90 92 93T92 100Z" />
</font>
</defs>
</svg>
